<svg id="Layer_1" data-name="Layer 1" xmlns="http://www.w3.org/2000/svg" viewBox="0 0 1721.83 267.72"><defs><style>.cls-1{fill:#cb8c3b;}</style></defs><title>layer3</title><path class="cls-1" d="M1721.83,696.47c-27-4.14-55.79,10-81.37,5.62-24-3.88-34.26-11.23-55.43-16.93-8-1.86-13.3-2.72-20.71-4.76-2.75,0-5.56,0-8.46,0-10.88,0-20.32,16-32.85,15s-18.4-18.35-28.24-18.54h-0.55c-1.77.06-3.4,0.19-5,.32l-0.15,0c-1.6.25-3,.57-4.38,0.88-6.8,1.53-9.43,3.15-15.53,5a92.58,92.58,0,0,1-12.87,2.58c-30.93,4.43-58.08-1.14-90.81,3.24-24.47,2.3-49.19,15.41-61.39,21.53-2.54.7-5.18,1.37-8.09,2s-6.08,1.1-9.68,1.48c-16.87,1.79-40.63-.64-64.47-3-10.71-1.07-21-2-30.46-2.15-8.53-.13-15.25,1-21.62,1.7-16.68,2-23.62-13.42-47.57-15-5.78-.38-25.24,14.25-31,14.51-6.85.31-11.07,1.71-16.73,2.5-15.29,2.11-35.55,1.26-60.19-2.82-19.19,1.35-67,16.73-91,15.43-21.85-1.18-2.28-36-41.61-21.19-0.93.35-1.92-.19-2.89-0.29l-6.86-.05c-18.6-.2-40.83,23.83-60.84,22.8-12.13.83-24.51-24.12-40.17-24.87-25.68-1.23-47.61-2.44-68.37-1.33-23.05,1.24-46.79,3.86-54.84,9.31-4.3,2.9-6.53,6.23-11.78,8.93-6.74,3.46-18.87,5.52-28.09,8.32-17.59,5.34-42.23-11.45-77.52-12.73-31.15-1.13-58.6,17.34-82.82,19.6-10.61,1-14.74,4.06-20.45,6.43-7.76,3.22-18.84,5.52-30.56,7.61-21.74,3.87-47.28,6.53-72,9.4-18.71,2.17-36.68,4.56-52.5,7.68-17,3.35-31.35,7.35-52.12,9.51-20.4,2.12-51.07-.49-80.47-3.89-13-1.5-26.09-3.14-39-4.47-10.86-1.13-20.63-11.37-26.71-11.27-19.53.33-38.57,11.76-58.54,11.94-4.88,0-9.95,0-15.15-.17v97.11c29.24,10.73,58.11,21.49,83.11,32.54s45.58,22.2,67.38,33.22q15.28,7.73,30.36,15.45h1541V696.47Z" transform="translate(0 -676.84)"/></svg>