<svg id="Layer_1" data-name="Layer 1" xmlns="http://www.w3.org/2000/svg" viewBox="0 0 1722 1155.66"><defs><style>.cls-1{fill:#ffd75e;}.cls-2{fill:#fffaed;}.cls-3{fill:#fff;opacity:0.3;}</style></defs><title>layer1</title><rect class="cls-1" x="0.49" width="1721.51" height="1155.66"/><ellipse class="cls-2" cx="1282.61" cy="556.91" rx="297.11" ry="297.92"/><path class="cls-3" d="M1722,283.83a1.94,1.94,0,0,0-1.79-1.93,317.9,317.9,0,0,1-38.57-5.31c-9.81-2-19.49-4.53-29.08-7.45l-0.27-.1c-18.63-8.63-36.45-19.08-54.19-29.84a1.94,1.94,0,0,1,1.54-3.53,622.9,622.9,0,0,0,110.74,21.07q4.75,0.46,9.52.84a2,2,0,0,0,2.1-1.94V224a1.94,1.94,0,0,0-1.79-1.93q-3.95-.32-7.89-0.68c-75.89-7.14-150.34-29.75-220.25-65.59-17.39-8.91-35-17-54.27-12.69-16.05,3.6-29.2,15.76-41.25,28.22s-23.81,25-39.14,32c-15,6.79-30.89,8.84-46.84,8.69-34.68-.33-68.65-10.31-102.82-16.18-37.87-6.51-74.45-5.52-112.27,1.15-33.85,6-67.54,14.89-101.12,19.69l-0.27,0c-11.26.16-22.51,0.07-33.77-.32a531.76,531.76,0,0,1-74.73-7.66,2.08,2.08,0,0,1-.36-0.1q-5.48-2.05-11-4.53c-32.73-14.87-63.14-36.22-96.35-49.72-35-14.24-71.11-15.84-106.77-3.69-36,12.27-68.78,34.76-102.58,53.42A497,497,0,0,1,461.7,247.6c-73.18,20.4-150.25,23.61-224.36,8.34-39.32-8.1-77.22-25.72-117-30.28-18.91-2.17-38,.82-56.5,5.49-18.78,4.74-36.33,13-54.82,18.8l-7.65,2.38A1.94,1.94,0,0,0,0,254.18v48.6a2,2,0,0,0,2.36,1.9,144.7,144.7,0,0,0,17.75-5.36c19.25-6.7,37.73-14.67,58-15.13,18.91-.43,37.57,3.14,56.16,6.9l0.1,3.79c-14.59,3.94-28.47,10.31-42.35,17.5-28.12,14.56-58.11,34.15-89.68,27A1.94,1.94,0,0,0,0,341.25v31.62a2,2,0,0,0,1.61,1.92,92.23,92.23,0,0,0,19.74,1.13c37.6-1.84,68.94-27.08,103.63-41.17,39.71-16.13,83.86-7.77,124.61-2.07,44.16,6.17,88,15.47,131.49,26.34,38.57,9.63,76.43,19.19,115.42,7,30.42-9.53,58.18-28.57,84.77-48.1,26.94-19.78,53.67-41.72,83.44-55.07,35.58-15.95,70.12-13.1,106.63-2.87,19.69,5.52,39.21,12.09,59.16,16.16,21,4.27,41.88,5.11,63.13,4.23,22.42-.93,44.61-2,67,0.48,21.21,2.32,42.23,6.48,63.38,9.38,84.45,11.57,170.18,1.42,252.91-20.39,20.11-5.3,39.94-11.82,59.72-18.47a1.91,1.91,0,0,1,.86-0.08c8.41,1.1,16.89,1.69,25.29,2,15,0.54,30.49-1.67,45.32-4.69,26.64-5.43,53.26-6.17,79.92-.55,54,11.37,104,39.8,156.93,55.66l0.21,0.08a403,403,0,0,0,74.45,24.67,2,2,0,0,0,2.37-1.9V283.83ZM462.27,336.72c-12.85.72-25.51-.93-38.08-3.49a1.94,1.94,0,0,1,.05-3.82,373.35,373.35,0,0,0,38.8-8.58A788.94,788.94,0,0,0,563.95,285a1.94,1.94,0,0,1,1.93,3.34C533.55,312.53,500.11,334.6,462.27,336.72ZM716,215.09l-2.59,0a2,2,0,0,1-.66-3.79,109.88,109.88,0,0,1,19.69-4.81,2,2,0,0,1,.77,0,184.08,184.08,0,0,1,31.32,11.25,2,2,0,0,1-1.26,3.66C747.77,217.69,732.07,215,716,215.09Zm368.84,44.29-2.37-.06a2,2,0,0,1-.35-3.85q2.12-.47,4.24-1c16.61-3.91,33.17-9,50.14-10,15.77-.93,31.42,1.41,46.91,4.69l0.1,0a2,2,0,0,1-.14,3.83A603.86,603.86,0,0,1,1084.89,259.39Zm366.74-74c-6.34.36-12.64,1.06-18.9,2a1.94,1.94,0,0,1-1.46-3.49q0.8-.58,1.62-1.13c11.23-7.6,22.59-5.77,33.72-1.24a1.94,1.94,0,0,1-.81,3.74Q1458.78,185,1451.63,185.43Z"/><path class="cls-3" d="M1696.76,428.16C1630,436,1569,462.28,1503.82,475.32,1439.39,488.2,1371,490.48,1306,479c-63.46-11.2-122.81-33.9-185.92-46.12-32.61-6.32-66.66-10.09-100.18-7.91-35.61,2.32-69.84,10.15-104,18.19-30.55,7.19-61.35,14.4-92.13,15.55-30.11,1.13-54.81-3.25-80.86-15.7-29.42-14.07-59.5-25.62-93.86-15.64-15.11,4.39-29.35,11.11-43.78,15.68a389.68,389.68,0,0,1-45.06,11.26c-58.53,11.07-123.38,8.82-182.85,1.76-32.54-3.86-64.81-9.06-97-14.69-35.51-6.22-71.33-12.78-107.75-13.85C121.11,426,71.82,437.88,25.2,454.74l-9.58-.7c-4.51-.33-9-0.64-13.51-1C1.42,453,.71,452.86,0,452.77v96.3a496.73,496.73,0,0,1,57.65-22.85c5.34-.18,10.69-0.21,16,0q5.48,0.17,11,.59c0.94,0.07,6.39.66,3.31,0.26H88l3.81,0.49c7.94,1.09,15.8,2.52,23.61,4.11,15.66,3.18,31.14,7,46.88,9.9A510.77,510.77,0,0,0,216,548.4c32.16,2.51,64.61,1.76,96.68-1.15a963.94,963.94,0,0,0,100.06-14.67A319.81,319.81,0,0,0,464,540.84c19.74,1.46,39.43-.34,59-2.64C592.47,530,660.61,517,731.23,517.11c34.1,0.07,66.85,3,99.54,11.09,33.3,8.21,62.77,22.94,94,35.14,66.89,26.15,139.38,32.18,212.34,24.08,18.36-2,36.57-4.79,54.58-8.39,17.2-3.43,34.07-8.26,51.48-10.91,33.13-5.05,59.6,11.78,90.67,19.26,58.19,14,117.25-2.07,171.28-19.77,26.75-8.76,53.35-18.05,81-24.74,27.2-6.57,49-10.22,77.2-7.15,20.2,2.21,39.58,7.76,58.69,13.86V426.05C1713.56,426.46,1705.13,427.17,1696.76,428.16ZM346,498.95c-9.32,4.74-18.09,11.33-28.7,12.81a261.8,261.8,0,0,1-31.4,2.67,99.29,99.29,0,0,1-48.55-11.58c-12.41-6.43-24.2-14.94-37.44-18.52A35.51,35.51,0,0,0,181,484.2c-7.69,2-15.28,4.48-22.94,6.63a75,75,0,0,1-26,2.43c-8.11-.54-17.52-1-25.11-4.16-0.62-.26-0.88-1.41,0-1.54,5-.73,10.1-0.53,15.07-1.54a61.64,61.64,0,0,0,13.88-5c8.37-4,16.39-8.59,24.44-13.17,14.56-8.27,31.75-10.78,47.9-5.87,14,4.25,26.24,12.44,39,19.26,13.79,7.36,27.31,10,43.12,9.24,9-.42,18.13-2.27,27.16-2.43a53.83,53.83,0,0,1,13.79,1.48c2.18,0.6,3.8,1.51,6.09,1.79s4.4,0.43,6.6.67C347.42,492.31,349.6,497.09,346,498.95Zm482-7.07c-13,1.22-26.18,1.11-39.26,1.21-6.37,0-12.74,0-19.11,0s-12.66.76-19,.84H749a16.11,16.11,0,0,1-3.57,1.15c-3.33.71-6.7,1-10,1.62-7.08,1.36-14.1,1.47-21.3,1.7-13.2.42-26.4,0.89-39.61,1.25a129.07,129.07,0,0,1-18.65-.43l-1.52.12c-15.15,1.18-30.38,2.13-45.4,4.51-7.17,1.14-14.61,2.66-21.89,2.67l-1,0c-1.37.21-2.75,0.4-4.14,0.55-21,2.27-41.39-7.47-62-9.82-0.1,0-.14-0.17,0-0.18,12-2,24.06.55,36.08,1.11,10.69,0.49,21.39-1.69,31.43-5.34,17.24-6.26,33-16,50-22.73,18.59-7.38,37.5-9.94,57.15-5.35,11.07,2.59,22,5.66,33.13,7.9q6.24,1.25,12.38,2.77c1.17,0.12,2.33.24,3.5,0.41a33.06,33.06,0,0,1,4.72.68,7.93,7.93,0,0,1,3.32,2q4.57,1.29,9.12,2.67c11,3.35,23.23,4.1,34.65,5.35,10.94,1.19,21.93,1.95,32.79,3.69C829.23,490.29,828.83,491.79,827.92,491.87ZM1691.84,490c-10.53,1-20.9,2.23-31.32,4.05-9.91,1.73-19.36,5.12-29.32,6.78-18.43,3.07-35.91,9.09-53.38,15.53-17.27,6.37-34.62,11.94-52.7,15.54s-37.76,7.22-56.4,6.59c-4.94-.17-9.32-1.4-14.16-2.1-4.33-.63-8.7-1-13-1.55-9.47-1.28-19-2.82-28.52-3.47a1.64,1.64,0,0,1,0-3.28c10.82-1.4,21.48-4.07,32.13-6.39s20.38-5.88,31.13-7c18-1.9,35.85-4,53.52-8.22,18.64-4.41,36.31-11.39,54.32-17.74a232.56,232.56,0,0,1,26.29-7.7c9.22-2.07,19.25-4.44,28.73-3.94,8.94,0.48,17.89,2.24,26.71,3.64a129.36,129.36,0,0,1,26.24,7.55A0.9,0.9,0,0,1,1691.84,490Z"/></svg>