<svg id="Layer_1" data-name="Layer 1" xmlns="http://www.w3.org/2000/svg" viewBox="0 0 1722 172.28"><defs><style>.cls-1{fill:#e8a94a;}</style></defs><title>layer2</title><path class="cls-1" d="M1722,637.43c-8,1.49-19.91,9.38-31.2,9-20.3-.51-33.49,4.55-53.26,6.1a26.82,26.82,0,0,1-7.64-2.56c-6.09-3-11.16-7.08-18.27-7.08a209.2,209.2,0,0,1-31.58-2.19c-3.4-.47-6.79-1-10.19-1.52-13-2.36-42.55,15.11-55.74,16.63-36.28,5.1-53.69-25-88.74-28.2q-4.78-.43-9.61-0.67c-6.1-.12-12.19-0.18-18.16-0.53-3-.17-5.92-0.41-8.79-0.72-16,.76-27-2-36.82-6.14-2.46-1-4.84-2.14-7.22-3.29-8.19-3.73-15.3-8.79-25.45-8.79-19.28,0-38.57,2-57.85,2-9.13,0-17.25,3-23.86,6.22-1.64.69-3.34,1.36-5.12,2s-3.65,1.23-5.64,1.77c-3.33.81-6.56,1.59-9.67,2.31-1.91.27-4,.55-6.46,0.82s-5.09.54-8,.8c-19.38,2.79-46.86,15.89-57.73-5.5-30.45,2-56,49.45-81.77,23.65q-5.21.72-10.21,1.43c-3.33.47-6.57,1-9.69,1.45-2.37.43-4.8,0.86-7.32,1.27-12.61,2.08-23.79-4.9-46.15-3.93-3.73.21-11.42,9.16-15.4,9.34-3.32.14-28.89,19-32.3,19.11-54,10.07-85.62-12.16-141.63-17-2.91.07-5.55,0.18-7.94,0.32-26.3,1.53-23.44,6.84-45.07,8-8.05.38-15.27,0.81-21.76,1.28-3.24.24-6.3,0.49-9.08,0.78a40.61,40.61,0,0,0-9.42,1.6c-4.86,1.51-4.51,3.23-5.73,4.84a7.14,7.14,0,0,1-3.84,2.31A48,48,0,0,1,684,674.23c-16.24.51-29.43,5.06-42.63,8.09-7.1,1.52-53.28,5-60.38,4.49-56.83-4-74-22.66-130-18.15-6.48.16-13.72,15.16-20.33,15-13.23-.4-26.38-1-38.06,0l-7.8.74c-43.09,4-101.13,6.38-140.07,10.85-21.63,2.48-33.43,5.68-50.24,8.44-16,2.63-78.3-22.85-102.46-20.84-39,3.24-30,44.74-92,35.46v61.42H1722V637.43Z" transform="translate(0 -607.45)"/></svg>