<svg id="Layer_1" data-name="Layer 1" xmlns="http://www.w3.org/2000/svg" viewBox="0 0 1722 433.33"><defs><style>.cls-1{fill:#ae6e2d;}</style></defs><title>layer4</title><path class="cls-1" d="M1720.81,809.54c-102.54-.12-125.64,12.43-218.33,13.67-8.17,0-61.54,14.42-85.75,3.18-19.14-8.88-54.25-14.35-73.47-13.8-20.42.58-33.66,1.24-57.9,1.69-30.1.55-66.65,0.48-99.87,0.58-64.8.19-85.66-9.83-120.31-8.29-11.73.52-38,12.84-51.6,13.29-6.78.22-26.23,15.14-33.45,15.35-55.42,1.52-83.27-10.67-160.17-10.08-43.94.36-84.23,0.48-120,1.27-6.06.12-12.26,0.23-18.67,0.33-25,.39-47-8.7-73-8.38-55.71.68-103.86,11-115.68,13-2.75.47-4.5,0.93-7,1.39-1.24.23-2.67,0.46-4.5,0.69C420.79,837.87,321.91,842,209.86,845c-8.31.16-25.5-13.32-34.14-13.18-34.59.59-61.74,14.74-91.69,15.6-35.36,1-59.45,2.35-84,3.64v108l1722,6.76V809.53h-1.19Z" transform="translate(0 -532.53)"/><path class="cls-1" d="M523.56,833.84l220.65,7.75,214.08-27.92A85.92,85.92,0,0,0,948.06,810c-15-4.09-29.32-10.55-43.67-17.32-0.29-.31-0.59-0.61-0.89-0.91-0.85-.83-2.85-2.36-2.89-3.87a1.88,1.88,0,0,0-1.3-1.88,4.33,4.33,0,0,0-2.1-.1,1.11,1.11,0,0,0-1.95-.73h-2c-1.69-1.6-3.41-1.29-5.3-.93-1.13-.37-2.28-0.59-3.41-0.91l-1.58-.72c-0.87-.68-1.61-1.76-2.6-2.22a4.86,4.86,0,0,0-3.08-.07c-2.48-.86-5-1.63-7.45-2.56a20.48,20.48,0,0,0-4.44-3.24,18.21,18.21,0,0,0-3.12-1.12,6,6,0,0,1-1.89-1c-0.34-.29-0.67-0.58-1-0.89l-0.52-.49-0.29-.31c-0.08-.73-0.13-1.48-0.14-2.24a1.57,1.57,0,0,0-.14-0.66c0-1.91-1.46-1.63-2.49-2s-2.32-.86-3.48-1.26a83.8,83.8,0,0,1-7.87-9.36,12.52,12.52,0,0,0-.8-1.14c-0.87-1.23-1.83-2.55-2.85-3.94a9.89,9.89,0,0,1-.46-1.38,10.16,10.16,0,0,0-3.21-5.1,1,1,0,0,0-1.17-.21c-4-5.73-7.88-12.1-9.58-18.33,0-.64,0-1.27,0-1.91,0-1.33-.49-2.94.09-4.12,0.41-.84-0.11-2.09-0.95-2a19.14,19.14,0,0,1-4.73,0c-1.59-.26-3.18-0.48-4.78-0.62-1.5-.65-2.85-1.94-4.28-4.57a30.37,30.37,0,0,1-2.79-7.89c0-1.92-.18-3.84-0.33-5.71a4.62,4.62,0,0,0-.88-2.49c-0.22-2.54-.33-5-0.39-7.37-0.16-5.63,1.22-16.31.48-24.53,0-.11,0-0.22,0-0.33a25.64,25.64,0,0,1,.2-5.09,4.74,4.74,0,0,0-.25-2.84c-1-1.85-2.68-1.93-4.33-2.34-1.24-.3-2.1-1.36-3.1-2.22l-0.11-.09c-1.24-3.46-2.93-6.72-3.8-10.41a72.14,72.14,0,0,1-1.46-12c-0.13-1.77-.33-3.43-0.55-5,0.09-4.35.27-8.26-1.05-12.52-0.25-.81-0.54-1.6-0.82-2.39-0.09-1.67-.17-3.31-0.17-4.93s-0.16-3.16-.22-4.75l0.26-.82a11.9,11.9,0,0,0,.6-3.09c0.11-.27.21-0.54,0.31-0.82a5,5,0,0,0,.29-2.58,1.82,1.82,0,0,0-.71-1.05,2.25,2.25,0,0,1-1.26-2.19,1.39,1.39,0,0,0-.37-1c0-.12,0-0.24,0-0.36q-0.1-18.17-.47-36.29s0,0,0,0c0-.79,0-1.56,0-2.35s0.42-1.3.43-2a30.13,30.13,0,0,0-.25-3.59q0.11-1.39.22-2.78c0.11-1.34.06-2.67,0.24-4a5.37,5.37,0,0,0,0-2.24,1.48,1.48,0,0,0-1-1.18h0a5.49,5.49,0,0,0-2.12.14,1.36,1.36,0,0,0-1,1.36,2.45,2.45,0,0,0-.64.37l-0.28-.17c0-.84-0.5-1.76-1.35-1.46a4.36,4.36,0,0,1-1.5.24,9.55,9.55,0,0,0-1.94-.28,8.63,8.63,0,0,0-2.72-.33c-1,.09-2,0.53-3,0.58-1.34.06-2.68,0.17-4,.34a1.34,1.34,0,0,0-1,1.35,1.29,1.29,0,0,0-.3,1c0.13,2.43.07,4.87,0.27,7.3a20.61,20.61,0,0,0,.79,3.66c0.07,2.32,0,4.66,0,7a78.13,78.13,0,0,0-.63,11.81l-0.1.13c-1.09,1.65-.48,4.09-0.22,6-0.12.91-.24,1.81-0.34,2.7q-0.28,2.43-.67,4.85c-0.23.88-.48,1.75-0.73,2.65a56.46,56.46,0,0,0-1.39,6.7c-0.07.23-.13,0.46-0.21,0.69-0.52,1.63-1.11,3.23-1.75,4.8a18.73,18.73,0,0,0-2.38,2.2c-0.82,1.15-1.28,2.41-2.35,3.3a4,4,0,0,0-1.22,2.48,22.92,22.92,0,0,0-.18,5.28c-2.45,4.72-3.85,34.82-5.8,39.52-2-3.31-4.09-32.16-5.16-35.61a30.12,30.12,0,0,1,0-6c0-.06,0-0.13.07-0.19a1.41,1.41,0,0,0-.76-1.66c-0.75-.17-1-1.33-1.59-1.9a9,9,0,0,0-2-1.44c-1.37-2.95-1.95-2.91-7.7-2.56-3.09.19-6.12,0.6-9.22,0.79a6,6,0,0,0-.68-0.33c-0.93-.39-1.54-0.46-1.47-1.81a1.06,1.06,0,0,0-1.89-.87,1.19,1.19,0,0,0-.35,0,5.41,5.41,0,0,0-1.37.53l-0.24-.33c-0.6-.85-1.55-0.26-1.83.6a2.92,2.92,0,0,1-2.42,2.19c-5.08-.13-10-0.29-14.87-0.08a14,14,0,0,1-2-.54,6.58,6.58,0,0,0-2-.6c-1-.05-2.26.85-3.23,1.23a1.13,1.13,0,0,0-.63.63,48,48,0,0,0-10.79,2.89c-2.25.47-4.37,1.59-6.68,1.69a1,1,0,0,0-.79.46,1.53,1.53,0,0,0-.28.36,5.42,5.42,0,0,0-.55,1.94l-0.49.33c1.44,8.23.73,17.1-.75,25.66a1.48,1.48,0,0,0-.43,1c-0.29,3.36-2.29,5.87-2.9,9.1a31.85,31.85,0,0,1-1.32,4.17c-0.49,1.5.27,2.38,0.37,3.78a8.69,8.69,0,0,1,0,1q-0.53,2.08-1.07,4.14c-0.43,1-.91,2-1.28,3.2-1,3.28-1.68,6.7-2.45,10.09-1.37,4.58-2.82,9.12-4.38,13.67-2.77,8.07-4.85,53.15-8.92,56.71-1.11,1-10.86-16.3-8.38-35.49-10.66,5.31-13.24-.8-15.23-0.6-4.54.46-3.09,4.74-12.06,4.4-1.49-.06-3.56-0.17-4.75,1.21-0.55.64-.17,2-1.11,6-2.5,10.73-4.34,20.17-9.67,29.68-3.13,5.59,1.1,19.51-10.32,15.11-3.51,6.26-3.73,10.6-5,14.52-2.2,6.78-7.44,15.79-21,24.89A210.48,210.48,0,0,1,523.56,833.84Z" transform="translate(0 -532.53)"/></svg>